<svg xmlns="http://www.w3.org/2000/svg" xmlns:xlink="http://www.w3.org/1999/xlink" version="1.1" x="0px" y="0px" viewBox="0 0 100 125" enable-background="new 0 0 100 100" xml:space="preserve"><path d="M6.5,63.6c2.9,0,5.6,0.8,8.6,1.8C20,66.9,26.6,69,38.9,69c-0.6-1-1-2.2-1-3.4c0-2,0.9-3.8,2.3-5c-1.4-1.2-2.3-3-2.3-5  c0-2.8,1.8-5.2,4.2-6.1c-1.8-2.6-2.7-5.9-3.2-9h-3.2c-1,7.1-9.1,10-9.5,10.1c-0.8,0.3-1.6-0.1-1.9-0.9c-0.3-0.8,0.1-1.6,0.9-1.9  c0.1,0,7.6-2.8,7.6-8.8c0-0.8,0.7-1.5,1.5-1.5h5.9c0.7,0,1.4,0.6,1.5,1.3c0.8,5.7,2.1,8.9,4.4,10.6c1.6,1.2,3.7,1.6,6.5,1.4L50.2,41  c0,0,0,0,0,0L49,36.5c-0.3-1.7-0.7-2.5-1.5-3c0,0-0.1-0.1-0.1-0.1c-1.5-1.2-5.9-4.4-9.1-4.4c-12.5,0-18.9,2.1-23.5,3.7  c-2.9,1-5.4,1.8-8.3,1.8c-0.8,0-1.5-0.7-1.5-1.5s0.7-1.5,1.5-1.5c2.5,0,4.6-0.7,7.4-1.6c4.8-1.6,11.5-3.8,24.5-3.8  c3,0,6.3,1.8,8.5,3.3H60c3.6,0,6.5,2.9,6.5,6.5c0,2-0.9,3.8-2.4,5c1.4,1.2,2.3,3,2.3,5c0,2-0.9,3.8-2.3,5c1.4,1.2,2.3,3,2.3,5  c0,2.5-1.4,4.7-3.5,5.8c1,1.1,1.5,2.6,1.5,4.2c0,3.6-2.9,6.5-6.5,6.5H44.3c-0.2,0-0.4,0-0.6,0h-4.4c-13,0-20-2.2-25.1-3.8  c-2.9-0.9-5.2-1.6-7.7-1.6c-0.8,0-1.5-0.7-1.5-1.5S5.7,63.6,6.5,63.6z M60,39.2c1.9,0,3.5-1.6,3.5-3.5s-1.6-3.5-3.5-3.5h-9.5  c0.8,1.1,1.2,2.3,1.4,3.6l0.9,3.4H60z M63.5,45.7c0-1.9-1.6-3.5-3.5-3.5h-6.4l1.8,7H60C61.9,49.1,63.5,47.6,63.5,45.7z M60,52.1h-4  c0,0.3-0.1,0.6-0.2,0.8c-0.2,0.4-0.6,0.6-1,0.7c-1.3,0.2-2.5,0.3-3.6,0.3c-2.6,0-4.7-0.6-6.5-1.8h-0.4c-1.9,0-3.5,1.6-3.5,3.5  c0,1.9,1.6,3.5,3.5,3.5H58c0.1,0,0.2,0,0.3,0c0.1,0,0.1,0,0.2,0H60c1.9,0,3.5-1.6,3.5-3.5C63.5,53.7,61.9,52.1,60,52.1z M61.5,65.6  c0-1.9-1.6-3.5-3.5-3.5H44.3c-1.9,0-3.5,1.6-3.5,3.5c0,1.9,1.6,3.5,3.5,3.5H58C59.9,69.1,61.5,67.5,61.5,65.6z"/>
<!-- <text x="0" y="115" fill="#000000" font-size="5px" font-weight="bold" font-family="'Helvetica Neue', Helvetica, Arial-Unicode, Arial, Sans-serif">Created by Till Teenck</text><text x="0" y="120" fill="#000000" font-size="5px" font-weight="bold" font-family="'Helvetica Neue', Helvetica, Arial-Unicode, Arial, Sans-serif">from the Noun Project</text> -->
</svg>