<svg xmlns="http://www.w3.org/2000/svg" xmlns:xlink="http://www.w3.org/1999/xlink" version="1.1" x="0px" y="0px" viewBox="0 0 100 125" style="enable-background:new 0 0 100 100;" xml:space="preserve"><path d="M49.1,25.6L63.6,26c0.8,0,1.5,0.7,1.5,1.5c0,1.8-0.3,3.3-0.7,4.5h21c3.5,0,6.4,2.9,6.4,6.4c0,1.4-0.4,2.7-1.2,3.7  c2.6,0.8,4.5,3.3,4.5,6.1c0,3.5-2.9,6.4-6.4,6.4h-0.4c0.6,1,1,2.2,1,3.4c0,3.5-2.9,6.4-6.4,6.4h-7.7c0.6,1,1,2.2,1,3.4  c0,3.5-2.9,6.4-6.4,6.4l-34.2,0c-12.9,0-18.5-2.2-22.5-3.8c-2.3-0.9-4-1.6-6.4-1.6C5.7,69,5,68.3,5,67.5S5.7,66,6.5,66  c3,0,5.1,0.8,7.5,1.8c3.8,1.5,9.1,3.6,21.4,3.6l34.2,0c1.9,0,3.4-1.5,3.4-3.4s-1.5-3.4-3.4-3.4H47.4c-0.8,0-1.5-0.7-1.5-1.5  s0.7-1.5,1.5-1.5h35.3c1.9,0,3.4-1.5,3.4-3.4s-1.5-3.4-3.4-3.4H47.4c-0.8,0-1.5-0.7-1.5-1.5s0.7-1.5,1.5-1.5h41.1  c1.9,0,3.4-1.5,3.4-3.4s-1.5-3.4-3.4-3.4H47.7c-0.8,0-1.5-0.7-1.5-1.5s0.7-1.5,1.5-1.5h37.6c1.9,0,3.4-1.5,3.4-3.4s-1.5-3.4-3.4-3.4  h-23c-2.8,2.6-7.4,3.1-12.3,3.1H37.5c-1.3,7.1-12,10.1-12.4,10.2c-0.8,0.2-1.6-0.2-1.8-1c-0.2-0.8,0.2-1.6,1-1.8  c2.9-0.8,10.4-3.9,10.4-8.8c0-0.8,0.7-1.5,1.5-1.5h13.9c9.1,0,11.5-2.2,11.9-6.2l-12.9-0.4l-13.7,0c-13,0-17.9,3.8-21.8,6.8  c-2.1,1.6-4,3.1-6.7,3.8C6.1,39.3,5.2,38.8,5,38c0-0.1,0-0.2,0-0.4c0-0.7,0.5-1.3,1.1-1.5c2.1-0.5,3.6-1.7,5.6-3.2  c4.3-3.3,9.7-7.4,23.7-7.4L49.1,25.6z"/>
<!-- <text x="0" y="115" fill="#000000" font-size="5px" font-weight="bold" font-family="'Helvetica Neue', Helvetica, Arial-Unicode, Arial, Sans-serif">Created by Till Teenck</text><text x="0" y="120" fill="#000000" font-size="5px" font-weight="bold" font-family="'Helvetica Neue', Helvetica, Arial-Unicode, Arial, Sans-serif">from the Noun Project</text> -->
</svg>