<svg xmlns="http://www.w3.org/2000/svg" xmlns:xlink="http://www.w3.org/1999/xlink" version="1.1" x="0px" y="0px" viewBox="0 0 100 125" style="enable-background:new 0 0 100 100;" xml:space="preserve"><path d="M18.7,95c0.6,0,1.2-0.4,1.4-1c2.9-9,0.9-25.5-0.5-36.5c-0.5-4-0.9-7.1-0.9-8.6c0-1.3,1-2.5,3.8-4.6l24.6-14.8  c3.3-1.8,4.9-1.2,6.5-0.6c0.3,0.1,0.5,0.2,0.7,0.3l20.4,7.9c0.2,0.1,3.1,1.1,6.1,1.8c-0.5,1.5-1.4,3.6-2.9,4.4  c-0.7,0.4-1.5,0.5-2.4,0.2c-0.9-0.3-2.1-0.6-3.5-0.9C66.9,41.1,59,39,53.9,35.9c-0.6-0.4-1.4-0.3-1.9,0.3c-4.3,4.8-9.2,8-15.4,11.3  c-0.5,0.3-0.8,0.7-0.8,1.3l-0.2,5.4c0,0.4,0.1,0.8,0.4,1.1l6.5,6.4c0.4,0.4,1,0.5,1.5,0.4c0.3-0.1,7.7-2.6,12.7-7.9  c4.3-4.5,10-7.4,14.2-7c1.5,0.1,2.8,0.7,3.9,1.6l-8,6.4c0,0-0.1,0.1-0.1,0.1l-8.3,8c-2.6,2.7-3.8,6.1-4.9,9.5  c-0.9,2.6-1.7,5-3.1,6.9c-0.4,0.5-0.8,1-1.3,1.5c-2,2.1-4.7,4.9-6.7,12c-0.2,0.8,0.2,1.6,1,1.8c0.8,0.2,1.6-0.2,1.8-1  c1.8-6.4,4.1-8.8,5.9-10.8c0.6-0.6,1.1-1.1,1.6-1.8c1.7-2.3,2.7-5,3.6-7.7c1.1-3.2,2.1-6.2,4.2-8.3l8.2-7.9l9.2-7.3  c0.6-0.5,0.8-1.4,0.3-2c-0.4-0.6-0.9-1.1-1.3-1.5c0.9-0.1,1.8-0.3,2.6-0.8c3.4-2.1,4.5-7.2,4.6-7.8c0.2-0.8-0.4-1.6-1.2-1.8  c-3.3-0.7-7.2-2-7.2-2l-20.4-7.9c0,0-0.1,0-0.1,0c-0.2-0.1-0.4-0.1-0.7-0.2c-1.8-0.6-4.5-1.6-9,0.9L20.9,41.7c0,0-0.1,0.1-0.1,0.1  c-3.1,2.4-5,4.4-5,7.1c0,1.7,0.4,4.9,0.9,9C18,68.5,20,84.7,17.3,93c-0.3,0.8,0.2,1.6,1,1.9C18.4,95,18.6,95,18.7,95z M67.7,44.4  c-5,1-9.9,4.5-13,7.7c-3.5,3.7-8.7,6-10.7,6.8l-5.3-5.3l0.1-3.9c5.7-3.1,10.4-6.2,14.6-10.6C57.6,41.4,63,43.1,67.7,44.4z"/>
<!-- <text x="0" y="115" fill="#000000" font-size="5px" font-weight="bold" font-family="'Helvetica Neue', Helvetica, Arial-Unicode, Arial, Sans-serif">Created by Till Teenck</text><text x="0" y="120" fill="#000000" font-size="5px" font-weight="bold" font-family="'Helvetica Neue', Helvetica, Arial-Unicode, Arial, Sans-serif">from the Noun Project</text> -->
</svg>