<svg xmlns="http://www.w3.org/2000/svg" xmlns:xlink="http://www.w3.org/1999/xlink" version="1.1" x="0px" y="0px" viewBox="0 0 100 125" style="enable-background:new 0 0 100 100;" xml:space="preserve"><path d="M11.7,53.6c4.6-4.4,11.1-0.5,14,2.1l8.9,8.5c1.3-1.5,3-2.6,4.1-3.2l-0.8-11.4l-6.8-29.7c-0.4-1.5-0.2-3.1,0.6-4.4  c0.8-1.4,2.1-2.4,3.6-2.8c1.1-0.3,2.3-0.2,3.3,0.1c-0.2-1.2,0.1-2.5,0.7-3.6c0.8-1.4,2.1-2.4,3.6-2.8c3.2-0.8,6.4,1,7.3,4.2  c0.1,0.3,8.9,32.7,9.6,35c0.5,1.6,1.3,2.5,1.7,2.5c0.2,0,1-0.5,1.9-3.1c0.4-1.2,5.6-20.2,7.5-27.5c0.9-3.1,4.1-5,7.3-4.2  c1.7,0.3,3,1.3,3.7,2.7c0.8,1.4,1,2.9,0.6,4.4l-1.6,5.7c1-0.3,2.1-0.3,3.2,0c1.6,0.4,2.8,1.4,3.6,2.8c0.8,1.4,1,2.9,0.6,4.5  l-7.1,22.9c-0.2,2.4-1.8,24.5-7.4,38c-0.2,0.6-0.8,0.9-1.4,0.9c-0.2,0-0.4,0-0.6-0.1c-0.8-0.3-1.1-1.2-0.8-2  c5.6-13.5,7.1-37,7.2-37.2c0-0.1,0-0.2,0.1-0.3l7.2-23c0.2-0.7,0.1-1.5-0.3-2.2c-0.4-0.7-1-1.2-1.8-1.4c-1.6-0.4-3.4,0.5-3.8,2l0,0  l-5.2,18.9C74.2,50.6,73.6,51,73,51c-0.1,0-0.3,0-0.4-0.1c-0.8-0.2-1.3-1-1-1.8l8.2-29.5c0.2-0.7,0.1-1.5-0.3-2.2  c-0.4-0.7-1-1.2-1.8-1.4c-1.6-0.4-3.2,0.5-3.6,2c-0.3,1.1-7.1,26.2-7.6,27.6c-1.2,3.5-2.8,5.2-4.8,5.2c-2.3,0-3.8-2.4-4.5-4.6  c-0.7-2.3-9.3-33.7-9.6-35.1c-0.4-1.5-2.1-2.5-3.6-2c-0.8,0.2-1.4,0.7-1.8,1.4c-0.4,0.7-0.5,1.4-0.3,2.2l1.1,4l0,0l0,0l8.6,32.1  c0.2,0.8-0.3,1.6-1.1,1.8s-1.6-0.3-1.8-1.1l-8.8-31.9c-0.4-1.5-2.1-2.4-3.8-2c-0.8,0.2-1.4,0.7-1.8,1.4c-0.4,0.7-0.5,1.4-0.3,2.2  l6.9,29.9c0,0.1,0,0.2,0,0.2l0.9,12.5c0,0.6-0.3,1.2-0.8,1.5c-1,0.5-3.8,2.1-4.7,4c-0.2,0.4-0.6,0.7-1.1,0.8  c-0.5,0.1-0.9-0.1-1.3-0.4L23.7,58c-0.1-0.1-6.1-5.6-9.9-2.1c-0.4,0.4-0.4,0.7-0.4,0.9c0,0.8,0.8,2,2.1,3.3L28.6,72  c0.1,0.1,0.2,0.3,0.3,0.4c0.1,0.1,7.2,13.9,14,20.1c0.6,0.6,0.7,1.5,0.1,2.1c-0.3,0.3-0.7,0.5-1.1,0.5c-0.4,0-0.7-0.1-1-0.4  C34.1,88.5,27.4,76,26.4,74L13.5,62.1c-2.1-1.9-3.1-3.8-3.1-5.5C10.4,55.5,10.8,54.5,11.7,53.6z"/>
<!-- <text x="0" y="115" fill="#000000" font-size="5px" font-weight="bold" font-family="'Helvetica Neue', Helvetica, Arial-Unicode, Arial, Sans-serif">Created by Till Teenck</text><text x="0" y="120" fill="#000000" font-size="5px" font-weight="bold" font-family="'Helvetica Neue', Helvetica, Arial-Unicode, Arial, Sans-serif">from the Noun Project</text> -->
</svg>